{
	"asset":{
		"generator":"Khronos glTF Blender I/O v4.2.57",
		"version":"2.0"
	},
	"scene":0,
	"scenes":[
		{
			"name":"Scene",
			"nodes":[
				0
			]
		}
	],
	"nodes":[
		{
			"mesh":0,
			"name":"SomeObjectName",
			"translation":[
				-0.7094266414642334,
				0.8432735204696655,
				0.7334345579147339
			]
		}
	],
	"meshes":[
		{
			"name":"SomeMeshName",
			"primitives":[
				{
					"attributes":{
						"POSITION":0,
						"NORMAL":1,
						"TEXCOORD_0":2,
						"TANGENT":3,
						"COLOR_0":4
					},
					"indices":5
				}
			]
		}
	],
	"accessors":[
		{
			"bufferView":0,
			"componentType":5126,
			"count":24,
			"max":[
				0.3478280305862427,
				0.3478280305862427,
				0.3478280305862427
			],
			"min":[
				-0.3478280305862427,
				-0.3478280305862427,
				-0.3478280305862427
			],
			"type":"VEC3"
		},
		{
			"bufferView":1,
			"componentType":5126,
			"count":24,
			"type":"VEC3"
		},
		{
			"bufferView":2,
			"componentType":5126,
			"count":24,
			"type":"VEC2"
		},
		{
			"bufferView":3,
			"componentType":5126,
			"count":24,
			"type":"VEC4"
		},
		{
			"bufferView":4,
			"componentType":5123,
			"count":24,
			"normalized":true,
			"type":"VEC4"
		},
		{
			"bufferView":5,
			"componentType":5123,
			"count":36,
			"type":"SCALAR"
		}
	],
	"bufferViews":[
		{
			"buffer":0,
			"byteLength":288,
			"byteOffset":0,
			"target":34962
		},
		{
			"buffer":0,
			"byteLength":288,
			"byteOffset":288,
			"target":34962
		},
		{
			"buffer":0,
			"byteLength":192,
			"byteOffset":576,
			"target":34962
		},
		{
			"buffer":0,
			"byteLength":384,
			"byteOffset":768,
			"target":34962
		},
		{
			"buffer":0,
			"byteLength":192,
			"byteOffset":1152,
			"target":34962
		},
		{
			"buffer":0,
			"byteLength":72,
			"byteOffset":1344,
			"target":34963
		}
	],
	"buffers":[
		{
			"byteLength":1416,
			"uri":"model2.bin"
		}
	]
}
